<svg version="1.1" id="Layer_1" xmlns="http://www.w3.org/2000/svg" xmlns:xlink="http://www.w3.org/1999/xlink" x="0px" y="0px"
	 width="100%" viewBox="0 0 97 89" enable-background="new 0 0 97 89" xml:space="preserve">
<path fill="#020404" opacity="1.000000" stroke="none" 
	d="
M67.000000,90.000000 
	C44.666672,90.000000 22.833342,90.000000 1.000009,90.000000 
	C1.000006,60.333344 1.000006,30.666685 1.000003,1.000021 
	C33.333317,1.000014 65.666634,1.000014 97.999969,1.000007 
	C97.999977,30.666647 97.999977,60.333294 97.999985,89.999969 
	C87.833336,90.000000 77.666664,90.000000 67.000000,90.000000 
M32.727997,31.955286 
	C32.508919,30.679811 32.289841,29.404335 32.990692,28.007149 
	C37.649929,27.997316 42.317005,28.141016 46.964642,27.903856 
	C48.886951,27.805765 51.255886,27.999022 50.396217,24.185886 
	C49.566475,20.505491 50.216564,16.491468 50.216564,12.070835 
	C38.600189,12.070835 26.771595,12.070835 14.794509,12.070835 
	C14.523137,14.218061 14.091578,16.018927 14.102131,17.817198 
	C14.160566,27.775774 14.801036,37.755302 14.349182,47.687035 
	C13.593312,64.301033 26.806490,79.554123 43.064037,83.030533 
	C50.121616,84.539688 50.743793,84.042908 50.754967,76.740082 
	C50.757259,75.241447 50.614628,73.728867 50.770355,72.247055 
	C51.094391,69.163818 49.567680,68.222565 46.791801,67.137772 
	C42.773090,65.567284 39.211494,62.827106 35.468834,59.866585 
	C33.905605,57.273571 32.342377,54.680557 30.581982,51.407780 
	C30.557913,49.999878 30.533846,48.591976 31.140808,47.105347 
	C31.772596,47.046730 32.404385,46.988110 33.617161,47.542728 
	C35.395744,47.763668 37.173592,48.169006 38.953026,48.176067 
	C51.961174,48.227730 52.023041,48.196163 50.679230,35.108723 
	C50.557529,33.923531 48.967091,32.889153 47.489460,31.418413 
	C45.973305,31.550919 44.457146,31.683424 42.313320,31.873095 
	C41.893795,31.858089 41.474270,31.843082 40.597557,31.491467 
	C39.719051,31.599903 38.840546,31.708338 37.174866,31.864948 
	C35.873779,32.001583 34.572697,32.138218 32.727997,31.955286 
M58.083675,66.508652 
	C57.266960,67.620659 55.827988,68.688766 55.745880,69.852608 
	C55.456791,73.950356 55.633526,78.080956 55.633526,82.200180 
	C71.549873,81.928429 85.821327,65.476814 85.862007,47.975452 
	C85.903633,30.068226 71.771095,13.450091 55.619598,13.160949 
	C55.619598,16.932301 55.348763,20.732433 55.746712,24.461189 
	C55.916950,26.056261 57.118412,28.185043 58.471298,28.902973 
	C65.835938,32.811127 70.246376,38.541485 70.535049,47.000534 
	C70.840111,55.939903 66.452766,62.127674 58.083675,66.508652 
z"/>
<path fill="#B8B9B8" opacity="1.000000" stroke="none" 
	d="
M58.417213,66.365082 
	C66.452766,62.127674 70.840111,55.939903 70.535049,47.000534 
	C70.246376,38.541485 65.835938,32.811127 58.471298,28.902973 
	C57.118412,28.185043 55.916950,26.056261 55.746712,24.461189 
	C55.348763,20.732433 55.619598,16.932301 55.619598,13.160949 
	C71.771095,13.450091 85.903633,30.068226 85.862007,47.975452 
	C85.821327,65.476814 71.549873,81.928429 55.633526,82.200180 
	C55.633526,78.080956 55.456791,73.950356 55.745880,69.852608 
	C55.827988,68.688766 57.266960,67.620659 58.417213,66.365082 
z"/>
<path fill="#38A8AF" opacity="1.000000" stroke="none" 
	d="
M35.454899,60.585896 
	C39.211494,62.827106 42.773090,65.567284 46.791801,67.137772 
	C49.567680,68.222565 51.094391,69.163818 50.770355,72.247055 
	C50.614628,73.728867 50.757259,75.241447 50.754967,76.740082 
	C50.743793,84.042908 50.121616,84.539688 43.064037,83.030533 
	C26.806490,79.554123 13.593312,64.301033 14.349182,47.687035 
	C14.801036,37.755302 14.160566,27.775774 14.102131,17.817198 
	C14.091578,16.018927 14.523137,14.218061 14.794509,12.070835 
	C26.771595,12.070835 38.600189,12.070835 50.216564,12.070835 
	C50.216564,16.491468 49.566475,20.505491 50.396217,24.185886 
	C51.255886,27.999022 48.886951,27.805765 46.964642,27.903856 
	C42.317005,28.141016 37.649929,27.997316 32.209160,28.033428 
	C30.997742,28.087683 30.567852,28.115658 30.197119,27.817520 
	C31.205826,26.020855 32.155380,24.550306 33.524395,23.074062 
	C36.895020,23.393061 39.840546,23.789474 42.798954,24.021935 
	C45.661327,24.246849 48.141842,24.001293 48.020229,20.016386 
	C47.910400,16.417776 47.163628,13.767312 42.761581,13.993410 
	C35.176067,14.383014 27.586040,14.684671 19.650167,15.159971 
	C18.530590,18.938761 17.282549,22.557604 17.103642,26.228554 
	C16.862885,31.168589 17.758627,36.158081 17.611437,41.109848 
	C17.305542,51.400539 16.315079,61.783813 26.811136,68.389839 
	C27.198147,68.633423 27.643316,69.131439 27.674721,69.540565 
	C28.073191,74.731766 32.403927,74.869400 36.040077,76.411720 
	C38.982094,80.781151 42.969078,78.822998 46.490993,78.451157 
	C46.859539,78.412247 46.861221,74.898552 46.950600,72.643021 
	C43.926056,70.828362 40.984032,69.367706 37.925568,67.605217 
	C36.887070,66.846039 35.965015,66.388695 34.862900,65.643539 
	C28.804039,58.650154 26.635900,50.602974 27.170414,41.980587 
	C27.458916,37.326656 29.103525,32.756786 30.115814,28.607630 
	C30.233467,35.105534 30.371622,41.144806 30.509777,47.184074 
	C30.533846,48.591976 30.557913,49.999878 30.671989,52.134155 
	C32.326298,55.435654 33.890598,58.010777 35.454899,60.585896 
z"/>
<path fill="#389398" opacity="1.000000" stroke="none" 
	d="
M41.054745,31.828077 
	C41.474270,31.843082 41.893795,31.858089 43.045399,31.953140 
	C45.204559,31.950371 46.631638,31.867556 48.058720,31.784740 
	C48.967091,32.889153 50.557529,33.923531 50.679230,35.108723 
	C52.023041,48.196163 51.961174,48.227730 38.953026,48.176067 
	C37.173592,48.169006 35.395744,47.763668 33.380184,46.779770 
	C33.186008,41.436157 33.228809,36.855507 33.271610,32.274853 
	C34.572697,32.138218 35.873779,32.001583 37.945972,31.958160 
	C39.496300,31.976940 40.275524,31.902508 41.054745,31.828077 
M39.823612,33.968319 
	C35.679909,34.118725 35.583565,37.142239 35.955620,39.977741 
	C36.222473,42.011433 36.811150,45.116684 38.151714,45.705639 
	C44.433262,48.465340 48.046173,45.501904 48.200680,38.700226 
	C48.342113,32.474133 44.075089,34.148518 39.823612,33.968319 
z"/>
<path fill="#08343D" opacity="1.000000" stroke="none" 
	d="
M32.999802,32.115070 
	C33.228809,36.855507 33.186008,41.436157 33.089691,46.473152 
	C32.404385,46.988110 31.772596,47.046730 30.825293,47.144711 
	C30.371622,41.144806 30.233467,35.105534 30.051098,28.538820 
	C30.006886,28.011375 30.137964,28.143633 30.137964,28.143633 
	C30.567852,28.115658 30.997742,28.087683 31.749195,28.094284 
	C32.289841,29.404335 32.508919,30.679811 32.999802,32.115070 
z"/>
<path fill="#08343D" opacity="1.000000" stroke="none" 
	d="
M35.461868,60.226242 
	C33.890598,58.010777 32.326298,55.435654 30.770571,52.474037 
	C32.342377,54.680557 33.905605,57.273571 35.461868,60.226242 
z"/>
<path fill="#08343D" opacity="1.000000" stroke="none" 
	d="
M47.774090,31.601578 
	C46.631638,31.867556 45.204559,31.950371 43.359234,31.924557 
	C44.457146,31.683424 45.973305,31.550919 47.774090,31.601578 
z"/>
<path fill="#08343D" opacity="1.000000" stroke="none" 
	d="
M40.826149,31.659771 
	C40.275524,31.902508 39.496300,31.976940 38.339561,31.934072 
	C38.840546,31.708338 39.719051,31.599903 40.826149,31.659771 
z"/>
<path fill="#23BEC9" opacity="1.000000" stroke="none" 
	d="
M33.104935,23.079758 
	C32.155380,24.550306 31.205826,26.020855 30.197119,27.817520 
	C30.137964,28.143633 30.006886,28.011375 30.071602,28.080185 
	C29.103525,32.756786 27.458916,37.326656 27.170414,41.980587 
	C26.635900,50.602974 28.804039,58.650154 34.677147,65.954926 
	C34.390514,68.135880 34.053070,69.713966 33.948982,71.307297 
	C33.941620,71.419937 36.249851,72.051247 36.458527,71.744827 
	C37.220921,70.625313 37.549801,69.210564 38.042004,67.907043 
	C40.984032,69.367706 43.926056,70.828362 46.552303,72.669090 
	C42.801430,74.047371 39.366341,75.045586 35.931252,76.043800 
	C32.403927,74.869400 28.073191,74.731766 27.674721,69.540565 
	C27.643316,69.131439 27.198147,68.633423 26.811136,68.389839 
	C16.315079,61.783813 17.305542,51.400539 17.611437,41.109848 
	C17.758627,36.158081 16.862885,31.168589 17.103642,26.228554 
	C17.282549,22.557604 18.530590,18.938761 19.726721,15.503340 
	C21.898115,17.086090 23.506594,18.712822 25.427240,19.775188 
	C27.853453,21.117197 30.534061,21.999283 33.104935,23.079758 
z"/>
<path fill="#21B9BF" opacity="1.000000" stroke="none" 
	d="
M33.524395,23.074064 
	C30.534061,21.999283 27.853453,21.117197 25.427240,19.775188 
	C23.506594,18.712822 21.898115,17.086090 20.074461,15.366604 
	C27.586040,14.684671 35.176067,14.383014 42.761581,13.993410 
	C47.163628,13.767312 47.910400,16.417776 48.020229,20.016386 
	C48.141842,24.001293 45.661327,24.246849 42.798954,24.021935 
	C39.840546,23.789474 36.895020,23.393061 33.524395,23.074064 
z"/>
<path fill="#21BECA" opacity="1.000000" stroke="none" 
	d="
M36.040077,76.411720 
	C39.366341,75.045586 42.801430,74.047371 46.634819,73.023087 
	C46.861221,74.898552 46.859539,78.412247 46.490993,78.451157 
	C42.969078,78.822998 38.982094,80.781151 36.040077,76.411720 
z"/>
<path fill="#1DC0C8" opacity="1.000000" stroke="none" 
	d="
M37.925568,67.605217 
	C37.549801,69.210564 37.220921,70.625313 36.458527,71.744827 
	C36.249851,72.051247 33.941620,71.419937 33.948982,71.307297 
	C34.053070,69.713966 34.390514,68.135880 34.857204,66.242722 
	C35.965015,66.388695 36.887070,66.846039 37.925568,67.605217 
z"/>
<path fill="#28BCC8" opacity="1.000000" stroke="none" 
	d="
M40.274605,33.950104 
	C44.075089,34.148518 48.342113,32.474133 48.200680,38.700226 
	C48.046173,45.501904 44.433262,48.465340 38.151714,45.705639 
	C36.811150,45.116684 36.222473,42.011433 35.955620,39.977741 
	C35.583565,37.142239 35.679909,34.118725 40.274605,33.950104 
z"/>
</svg>